<?xml version="1.0" encoding="UTF-8" standalone="no"?>
<svg
   xmlns:dc="http://purl.org/dc/elements/1.1/"
   xmlns:cc="http://creativecommons.org/ns#"
   xmlns:rdf="http://www.w3.org/1999/02/22-rdf-syntax-ns#"
   xmlns:svg="http://www.w3.org/2000/svg"
   xmlns="http://www.w3.org/2000/svg"
   xmlns:sodipodi="http://sodipodi.sourceforge.net/DTD/sodipodi-0.dtd"
   xmlns:inkscape="http://www.inkscape.org/namespaces/inkscape"
   version="1.1"
   id="http://ethon.consensys.net/icons/CallContractMsg_icon"
   width="64"
   height="64"
   viewBox="-14 -14 134 134"
   sodipodi:docname="CallContractMsg.svg"
   inkscape:version="0.92.1 r">
  <metadata
     id="metadata11">
    <rdf:RDF>
      <cc:Work
         rdf:about="">
        <dc:format>image/svg+xml</dc:format>
        <dc:type
           rdf:resource="http://purl.org/dc/dcmitype/StillImage" />
      </cc:Work>
    </rdf:RDF>
  </metadata>
  <defs
     id="defs9" />
  <sodipodi:namedview
     pagecolor="#ffffff"
     bordercolor="#666666"
     borderopacity="1"
     objecttolerance="10"
     gridtolerance="10"
     guidetolerance="10"
     inkscape:pageopacity="0"
     inkscape:pageshadow="2"
     inkscape:window-width="2560"
     inkscape:window-height="1403"
     id="namedview7"
     showgrid="false"
     inkscape:zoom="10.429825"
     inkscape:cx="27.629486"
     inkscape:cy="20.448006"
     inkscape:window-x="0"
     inkscape:window-y="0"
     inkscape:window-maximized="1"
     inkscape:current-layer="http://ethon.consensys.net/icons/CallContractMsg_icon" />
  <style
     type="text/css"
     id="style2">
	.st0{fill:#333333;}
</style>
  <path
     id="path818"
     d="m 94,64.099999 v -33 c 0,-1.7 -1.29999,-3 -2.99999,-3 h -76 c -1.70001,0 -3.00001,1.3 -3.00001,3 v 44.000002 c 0,1.7 1.3,3 3.00001,3 H 28 v 7.3 c 0,0.4 0.3,0.8 0.7,0.9 0.10001,0 0.20001,0.1 0.3,0.1 0.3,0 0.6,-0.1 0.8,-0.3 l 6.90001,-8 h 43.5 c 0.5,6.7 6.1,12 12.89999,12 7.20002,0 13.00001,-5.8 13.00001,-13 C 106,70.200001 100.70001,64.600004 94,64.100004 Z"
     class="st0"
     inkscape:connector-curvature="0"
     style="fill:#ffffff;stroke-width:1;opacity:0.01"
     sodipodi:nodetypes="csssssscscscccscc" />
  <path
     class="st0"
     d="M82,61.1c0-0.6-0.4-1-1-1c0,0,0,0,0,0c0,0,0,0,0,0h-15l0.1-15c0-5-4-9-9-9H33  c0,0,0,0,0,0c-4.9,0-9,4-9,9c0,0.6,0.4,1,1,1h15l0,13l0,2c0,4.9,4,9,9,9c0,0,0,0,0,0h24C77.9,70.1,82,66,82,61.1z M26.1,44.1  c0.5-3.4,3.4-6,6.9-6s6.4,2.6,6.9,6H26.1z M42,61.1l0-2l0-14c0-2.8-1.3-5.4-3.4-7h18.3c3.9,0,7,3.1,7,7l-0.1,15H57c-0.6,0-1,0.4-1,1  c0,3.9-3.1,7-7,7S42,64.9,42,61.1z M73,68.1H54.6c1.8-1.5,3-3.6,3.3-6h22C79.4,65.4,76.5,68.1,73,68.1z M94,64.1v-33  c0-1.7-1.3-3-3-3H15c-1.7,0-3,1.3-3,3v44c0,1.7,1.3,3,3,3h13v7.3c0,0.4,0.3,0.8,0.7,0.9c0.1,0,0.2,0.1,0.3,0.1  c0.3,0,0.6-0.1,0.8-0.3l6.9-8h43.5c0.5,6.7,6.1,12,12.9,12c7.2,0,13-5.8,13-13C106,70.2,100.7,64.6,94,64.1z M36.1,76.1  c-0.3,0-0.6,0.1-0.8,0.3l-5.4,6.3v-5.6c0-0.6-0.4-1-1-1H15c-0.6,0-1-0.4-1-1v-44c0-0.6,0.4-1,1-1h76c0.6,0,1,0.4,1,1v33  c-6.4,0.5-11.5,5.6-11.9,12H36.1z M93,88c-6.1,0-11-4.9-11-11s4.9-11,11-11s11,4.9,11,11S99.1,88,93,88z M99.4,74.5  c0.4,0.4,0.4,1,0,1.4l-5.6,5.6c0,0,0,0,0,0c-0.1,0.1-0.2,0.2-0.3,0.2c-0.1,0-0.2,0.1-0.4,0.1c-0.3,0-0.5-0.1-0.7-0.3c0,0,0,0,0,0  l-5.6-5.6c-0.4-0.4-0.4-1,0-1.4s1-0.4,1.4,0l4.9,4.9l4.9-4.9C98.3,74.1,99,74.1,99.4,74.5z"
     id="path4" />
</svg>
