<?xml version="1.0" encoding="UTF-8" standalone="no"?>
<svg
   xmlns:dc="http://purl.org/dc/elements/1.1/"
   xmlns:cc="http://creativecommons.org/ns#"
   xmlns:rdf="http://www.w3.org/1999/02/22-rdf-syntax-ns#"
   xmlns:svg="http://www.w3.org/2000/svg"
   xmlns="http://www.w3.org/2000/svg"
   xmlns:sodipodi="http://sodipodi.sourceforge.net/DTD/sodipodi-0.dtd"
   xmlns:inkscape="http://www.inkscape.org/namespaces/inkscape"
   version="1.1"
   id="http://ethon.consensys.net/icons/CallTx_icon"
   width="64"
   height="64"
   viewBox="-14 -14 134 134"
   sodipodi:docname="CallTx_v.svg"
   inkscape:version="0.92.1 r">
  <metadata
     id="metadata11">
    <rdf:RDF>
      <cc:Work
         rdf:about="">
        <dc:format>image/svg+xml</dc:format>
        <dc:type
           rdf:resource="http://purl.org/dc/dcmitype/StillImage" />
      </cc:Work>
    </rdf:RDF>
  </metadata>
  <defs
     id="defs9" />
  <sodipodi:namedview
     pagecolor="#ffffff"
     bordercolor="#666666"
     borderopacity="1"
     objecttolerance="10"
     gridtolerance="10"
     guidetolerance="10"
     inkscape:pageopacity="0"
     inkscape:pageshadow="2"
     inkscape:window-width="2560"
     inkscape:window-height="1403"
     id="namedview7"
     showgrid="false"
     inkscape:zoom="3.6875"
     inkscape:cx="32.542373"
     inkscape:cy="32"
     inkscape:window-x="0"
     inkscape:window-y="0"
     inkscape:window-maximized="1"
     inkscape:current-layer="http://ethon.consensys.net/icons/CallTx_icon" />
  <style
     type="text/css"
     id="style2">
	.st0{fill:#333333;}
</style>
  <path
     id="path818"
     d="m 94,64.099997 v -33 c 0,-1.7 -1.3,-3 -3,-3 H 15 c -1.7,0 -3,1.3 -3,3 v 44.000001 c 0,1.7 1.3,2.999999 3,2.999999 h 13 v 7.300001 c 0,0.399999 0.3,0.8 0.7,0.9 0.1,0 0.2,0.100004 0.3,0.100004 0.3,0 0.6,-0.100004 0.8,-0.3 l 6.9,-8 h 43.5 c 0.5,6.700001 6.1,12.000001 12.9,12.000001 7.2,0 13,-5.8 13,-13 C 106,70.200002 100.7,64.600002 94,64.100002 Z"
     class="st0"
     inkscape:connector-curvature="0"
     style="fill:#ffffff;stroke-width:1;opacity:0.01"
     sodipodi:nodetypes="csssssscscscccscc" />
  <path
     class="st0"
     d="M53,39.8c-5,0-9,4-9,9s4,9,9,9s9-4,9-9S58,39.8,53,39.8z M53,55.8c-3.9,0-7-3.1-7-7  c0-3.9,3.1-7,7-7c3.9,0,7,3.1,7,7C60,52.7,56.8,55.8,53,55.8z M43.7,56.9c0,0.6-0.4,1-1,1c-3.9,0-7,3.1-7,7c0,0.6-0.4,1-1,1  s-1-0.4-1-1c0-5,4-9,9-9C43.2,55.9,43.7,56.3,43.7,56.9z M72.3,64.9c0,0.6-0.4,1-1,1s-1-0.4-1-1c0-3.9-3.1-7-7-7c-0.6,0-1-0.4-1-1  s0.4-1,1-1C68.3,55.9,72.3,59.9,72.3,64.9z M94,64.1v-33c0-1.7-1.3-3-3-3H15c-1.7,0-3,1.3-3,3v44c0,1.7,1.3,3,3,3h13v7.3  c0,0.4,0.3,0.8,0.7,0.9c0.1,0,0.2,0.1,0.3,0.1c0.3,0,0.6-0.1,0.8-0.3l6.9-8h43.5c0.5,6.7,6.1,12,12.9,12c7.2,0,13-5.8,13-13  C106,70.2,100.7,64.6,94,64.1z M36.1,76.1c-0.3,0-0.6,0.1-0.8,0.3l-5.4,6.3v-5.6c0-0.6-0.4-1-1-1H15c-0.6,0-1-0.4-1-1v-44  c0-0.6,0.4-1,1-1h76c0.6,0,1,0.4,1,1v33c-6.4,0.5-11.5,5.6-11.9,12H36.1z M93,88c-6.1,0-11-4.9-11-11s4.9-11,11-11s11,4.9,11,11  S99.1,88,93,88z M99.4,74.5c0.4,0.4,0.4,1,0,1.4l-5.7,5.7c0,0,0,0,0,0c-0.1,0.1-0.2,0.2-0.3,0.2c-0.1,0-0.2,0.1-0.4,0.1  c-0.3,0-0.5-0.1-0.7-0.3c0,0,0,0,0,0l-5.6-5.6c-0.4-0.4-0.4-1,0-1.4s1-0.4,1.4,0l4.9,4.9l4.9-4.9C98.3,74.1,99,74.1,99.4,74.5z"
     id="path4" />
</svg>
