<?xml version="1.0" encoding="UTF-8" standalone="no"?>
<svg
   xmlns:dc="http://purl.org/dc/elements/1.1/"
   xmlns:cc="http://creativecommons.org/ns#"
   xmlns:rdf="http://www.w3.org/1999/02/22-rdf-syntax-ns#"
   xmlns:svg="http://www.w3.org/2000/svg"
   xmlns="http://www.w3.org/2000/svg"
   xmlns:sodipodi="http://sodipodi.sourceforge.net/DTD/sodipodi-0.dtd"
   xmlns:inkscape="http://www.inkscape.org/namespaces/inkscape"
   version="1.1"
   id="http://ethon.consensys.net/icons/ExternalActor_F_1"
   x="0px"
   y="0px"
   viewBox="0 0 106 106"
   sodipodi:docname="ExternalActor_F_1.svg"
   inkscape:version="0.92.1 r">
  <metadata
     id="metadata10">
    <rdf:RDF>
      <cc:Work
         rdf:about="">
        <dc:format>image/svg+xml</dc:format>
        <dc:type
           rdf:resource="http://purl.org/dc/dcmitype/StillImage" />
      </cc:Work>
    </rdf:RDF>
  </metadata>
  <defs
     id="defs8" />
  <sodipodi:namedview
     pagecolor="#ffffff"
     bordercolor="#666666"
     borderopacity="1"
     objecttolerance="10"
     gridtolerance="10"
     guidetolerance="10"
     inkscape:pageopacity="0"
     inkscape:pageshadow="2"
     inkscape:window-width="1920"
     inkscape:window-height="1043"
     id="namedview6"
     showgrid="false"
     inkscape:zoom="2.2264151"
     inkscape:cx="-67.372881"
     inkscape:cy="53"
     inkscape:window-x="0"
     inkscape:window-y="0"
     inkscape:window-maximized="1"
     inkscape:current-layer="http://ethon.consensys.net/icons/ExternalActor_F_1" />
  <style
     type="text/css"
     id="style2">
	.st0{fill:#333333;}
</style>
  <path
     d="M 61.199993,54.900002 H 76.09999 c 0.4,0 0.8,-0.2 0.900003,-0.6 0.2,-0.4 0.1,-0.8 -0.2,-1.100003 -4.4,-4.299997 -6.8,-10.099997 -6.8,-16.299997 v 0 c -0.100003,-9.300003 -7.700003,-16.900003 -17,-16.900003 -9.299997,0 -16.899991,7.6 -16.999993,16.900003 v 0 c 0,6.2 -2.4,12 -6.8,16.299997 -0.3,0.300003 -0.4,0.700003 -0.2,1.100003 0.2,0.4 0.5,0.6 0.9,0.6 h 14.799996 0.1 c 2.4,1.899997 5.2,3.099997 8.2,3.099997 3,0 5.8,-1.2 8.2,-3.099997 z m -23.199994,6.399994 c 0,0.6 -0.4,1 -1,1 C 28.7,62.299996 22,68.999999 22,77.3 c 0,0.6 -0.4,1 -1,1 -0.6,0 -1,-0.4 -1,-1 0,-9.400004 7.6,-16.999998 16.999999,-16.999998 0.6,0 1,0.499997 1,0.999994 z M 86,77.3 c 0,0.6 -0.4,1 -1,1 -0.6,0 -1,-0.4 -1,-1 0,-8.300001 -6.70001,-15.000004 -15.000007,-15.000004 -0.6,0 -1,-0.4 -1,-1 0,-0.6 0.4,-0.999994 1,-0.999994 C 78.399993,60.300002 86,67.899996 86,77.3 Z"
     class="st0"
     id="ExternalActor_F_1_icon-3"
     inkscape:connector-curvature="0"
     style="fill:#333333;stroke-width:1;opacity:0.01"
     sodipodi:nodetypes="csccccscccssccscssssssssssssss" />
  <path
     id="ExternalActor_F_1_icon"
     class="st0"
     d="M61.2,54.9h14.9c0.4,0,0.8-0.2,0.9-0.6c0.2-0.4,0.1-0.8-0.2-1.1  C72.4,48.9,70,43.1,70,36.9c0,0,0,0,0,0C69.9,27.6,62.3,20,53,20c-9.3,0-16.9,7.6-17,16.9c0,0,0,0,0,0c0,6.2-2.4,12-6.8,16.3  c-0.3,0.3-0.4,0.7-0.2,1.1c0.2,0.4,0.5,0.6,0.9,0.6h14.8c0,0,0,0,0.1,0C47.2,56.8,50,58,53,58C56,58,58.8,56.8,61.2,54.9z M38,38.2  c4.7-0.3,9.1-2.7,12.2-6.6c3.2,3.6,7.8,5.6,12.6,5.6c1.7,0,3.4-0.3,5.1-0.8c0,0.2,0,0.4,0,0.6c0,8.6-6.9,19-15,19  C45.3,56,38.6,46.5,38,38.2z M63.4,52.9c2.4-2.6,4.4-5.9,5.5-9.4c0.9,3.4,2.6,6.6,4.9,9.4H63.4z M53,22c7.4,0,13.5,5.4,14.8,12.4  c-1.6,0.5-3.2,0.8-4.9,0.8c-4.7,0-9-2.1-11.9-5.9c0,0-0.1-0.1-0.1-0.1c0,0-0.1-0.1-0.1-0.1c0,0,0,0,0,0c-0.1,0-0.1-0.1-0.2-0.1  c-0.1,0-0.1,0-0.2-0.1c-0.1,0-0.1,0-0.2,0c-0.1,0-0.1,0-0.2,0c-0.1,0-0.1,0-0.2,0.1c-0.1,0-0.1,0-0.2,0.1c0,0,0,0,0,0  c0,0-0.1,0.1-0.1,0.1c0,0-0.1,0.1-0.1,0.1c-2.7,4-6.9,6.4-11.3,6.8C38.5,28.3,45,22,53,22z M37.1,43.6c1.1,3.5,3,6.8,5.5,9.4H32.2  C34.5,50.2,36.2,47,37.1,43.6z M38,61.3c0,0.6-0.4,1-1,1c-8.3,0-15,6.7-15,15c0,0.6-0.4,1-1,1s-1-0.4-1-1c0-9.4,7.6-17,17-17  C37.6,60.3,38,60.8,38,61.3z M86,77.3c0,0.6-0.4,1-1,1s-1-0.4-1-1c0-8.3-6.7-15-15-15c-0.6,0-1-0.4-1-1s0.4-1,1-1  C78.4,60.3,86,67.9,86,77.3z" />
</svg>
