<?xml version="1.0" encoding="UTF-8" standalone="no"?>
<svg
   xmlns:dc="http://purl.org/dc/elements/1.1/"
   xmlns:cc="http://creativecommons.org/ns#"
   xmlns:rdf="http://www.w3.org/1999/02/22-rdf-syntax-ns#"
   xmlns:svg="http://www.w3.org/2000/svg"
   xmlns="http://www.w3.org/2000/svg"
   xmlns:sodipodi="http://sodipodi.sourceforge.net/DTD/sodipodi-0.dtd"
   xmlns:inkscape="http://www.inkscape.org/namespaces/inkscape"
   version="1.1"
   id="http://ethon.consensys.net/icons/ExternalAccount"
   width="64"
   height="64"
   viewBox="-14 -14 134 134"
   sodipodi:docname="ExternalAccount.svg"
   inkscape:version="0.92.1 r">
  <metadata
     id="metadata11">
    <rdf:RDF>
      <cc:Work
         rdf:about="">
        <dc:format>image/svg+xml</dc:format>
        <dc:type
           rdf:resource="http://purl.org/dc/dcmitype/StillImage" />
      </cc:Work>
    </rdf:RDF>
  </metadata>
  <defs
     id="defs9" />
  <sodipodi:namedview
     pagecolor="#ffffff"
     bordercolor="#666666"
     borderopacity="1"
     objecttolerance="10"
     gridtolerance="10"
     guidetolerance="10"
     inkscape:pageopacity="0"
     inkscape:pageshadow="2"
     inkscape:window-width="2560"
     inkscape:window-height="1403"
     id="namedview7"
     showgrid="false"
     inkscape:zoom="3.6875"
     inkscape:cx="32.542373"
     inkscape:cy="32"
     inkscape:window-x="0"
     inkscape:window-y="0"
     inkscape:window-maximized="1"
     inkscape:current-layer="http://ethon.consensys.net/icons/ExternalAccount" />
  <style
     type="text/css"
     id="style2">
	.st0{fill:#333333;}
</style>
  <path
     id="path4526"
     d="m 89.100001,43.199999 h -1.1 v -12.2 c 0,-1.7 -1.3,-3 -3,-3 H 64 17 c -1.7,0 -3,1.3 -3,3 v 44.000003 c 0,1.7 1.3,2.999999 3,2.999999 h 68.000001 c 1.7,0 3,-1.299999 3,-2.999999 v -13.600003 -0.1 h 1.1 c 1.7,0 2.999999,-1.3 2.999999,-3 v -12 c 0,-1.7 -1.4,-3.1 -2.999999,-3.1 z"
     class="st0"
     inkscape:connector-curvature="0"
     style="fill:#ffffff;stroke-width:1;opacity:0.01"
     sodipodi:nodetypes="scsscssssssccssss" />
  <path
     class="st0"
     d="M79.1,47.2c-2.8,0-5,2.2-5,5s2.2,5,5,5s5-2.2,5-5S81.8,47.2,79.1,47.2z   M79.1,55.2c-1.7,0-3-1.3-3-3s1.3-3,3-3s3,1.3,3,3S80.7,55.2,79.1,55.2z M89.1,43.2H88V31c0-1.7-1.3-3-3-3L64,28h-47  c-1.7,0-3,1.3-3,3v44c0,1.7,1.3,3,3,3L85,78c1.7,0,3-1.3,3-3V61.4c0-0.1,0-0.1,0-0.1h1.1c1.7,0,3-1.3,3-3v-12  C92.1,44.6,90.7,43.2,89.1,43.2z M86,61.4V75c0,0.6-0.4,1-1,1l-68.1,0c-0.6,0-1-0.4-1-1V31c0-0.6,0.4-1,1-1H46l39,0c0.6,0,1,0.4,1,1  v12.2h-6.9c-5,0-9,4-9,9s4,9,9,9h7C86,61.3,86,61.3,86,61.4z M90.1,58.2c0,0.6-0.4,1-1,1h-10c-3.9,0-7-3.1-7-7s3.1-7,7-7h10  c0.6,0,1,0.4,1,1V58.2z M44.7,40.8c-5,0-9,4-9,9s4,9,9,9s9-4,9-9S49.6,40.8,44.7,40.8z M44.7,56.8c-3.9,0-7-3.1-7-7s3.1-7,7-7  s7,3.1,7,7S48.5,56.8,44.7,56.8z M35.3,57.8c0,0.6-0.4,1-1,1c-3.9,0-7,3.1-7,7c0,0.6-0.4,1-1,1s-1-0.4-1-1c0-5,4-9,9-9  C34.9,56.8,35.3,57.2,35.3,57.8z M64,65.8c0,0.6-0.4,1-1,1s-1-0.4-1-1c0-3.9-3.1-7-7-7c-0.6,0-1-0.4-1-1s0.4-1,1-1  C59.9,56.8,64,60.8,64,65.8z"
     id="path4" />
</svg>
