<?xml version="1.0" encoding="UTF-8" standalone="no"?>
<svg
   xmlns:dc="http://purl.org/dc/elements/1.1/"
   xmlns:cc="http://creativecommons.org/ns#"
   xmlns:rdf="http://www.w3.org/1999/02/22-rdf-syntax-ns#"
   xmlns:svg="http://www.w3.org/2000/svg"
   xmlns="http://www.w3.org/2000/svg"
   xmlns:sodipodi="http://sodipodi.sourceforge.net/DTD/sodipodi-0.dtd"
   xmlns:inkscape="http://www.inkscape.org/namespaces/inkscape"
   version="1.1"
   id="http://ethon.consensys.net/icons/ExternalActor_M_1"
   x="0px"
   y="0px"
   viewBox="0 0 106 106"
   sodipodi:docname="ExternalActor_M_1.svg"
   inkscape:version="0.92.1 r">
  <metadata
     id="metadata10">
    <rdf:RDF>
      <cc:Work
         rdf:about="">
        <dc:format>image/svg+xml</dc:format>
        <dc:type
           rdf:resource="http://purl.org/dc/dcmitype/StillImage" />
      </cc:Work>
    </rdf:RDF>
  </metadata>
  <defs
     id="defs8" />
  <sodipodi:namedview
     pagecolor="#ffffff"
     bordercolor="#666666"
     borderopacity="1"
     objecttolerance="10"
     gridtolerance="10"
     guidetolerance="10"
     inkscape:pageopacity="0"
     inkscape:pageshadow="2"
     inkscape:window-width="1920"
     inkscape:window-height="1043"
     id="namedview6"
     showgrid="false"
     inkscape:zoom="2.2264151"
     inkscape:cx="53.898305"
     inkscape:cy="53"
     inkscape:window-x="0"
     inkscape:window-y="0"
     inkscape:window-maximized="1"
     inkscape:current-layer="http://ethon.consensys.net/icons/ExternalActor_M_1" />
  <style
     type="text/css"
     id="style2">
	.st0{fill:#333333;}
</style>
  <path
     d="m 53,20.000003 c -9.4,0 -17,7.6 -17,17 0,9.500003 7.6,21 17,21 9.4,0 17,-11.499997 17,-21 0,-9.4 -7.6,-17 -17,-17 z M 38,61.3 c 0,0.6 -0.4,1 -1,1 -8.3,0 -15,6.700006 -15,14.999996 0,0.6 -0.4,1 -1,1 -0.6,0 -1,-0.4 -1,-1 0,-9.4 7.6,-16.99999 17,-16.99999 0.6,0 1,0.499997 1,0.999994 z m 48,15.999996 c 0,0.6 -0.4,1 -1,1 -0.6,0 -1,-0.4 -1,-1 C 84,69.000006 77.3,62.3 69,62.3 c -0.6,0 -1,-0.4 -1,-1 0,-0.599999 0.4,-0.999994 1,-0.999994 9.4,0 17,7.59999 17,16.99999 z"
     class="st0"
     id="ExternalActor_M_1_icon-3"
     inkscape:connector-curvature="0"
     style="fill:#333333;stroke-width:1;opacity:0.01"
     sodipodi:nodetypes="sssssssssssssssssss" />
  <path
     id="ExternalActor_M_1_icon"
     class="st0"
     d="M53,20c-9.4,0-17,7.6-17,17c0,9.5,7.6,21,17,21s17-11.5,17-21  C70,27.6,62.4,20,53,20z M53,22c6.7,0,12.3,4.4,14.3,10.4c-3.6-1.8-6.9-4.1-9.8-6.9c0,0-0.1-0.1-0.1-0.1c-0.1,0-0.1-0.1-0.2-0.1  c-0.1,0-0.1,0-0.2,0c-0.1,0-0.1,0-0.2,0c-0.1,0-0.1,0-0.2,0c-0.1,0-0.1,0-0.2,0c-0.1,0-0.1,0.1-0.2,0.1c-0.1,0-0.1,0.1-0.2,0.1  c-5.1,4.8-11.3,8.3-18,10C38.8,27.9,45.2,22,53,22z M53,56c-7.9,0-14.7-10-15-18.4c7-1.7,13.4-5.1,18.8-10c3.3,3,7,5.5,11.1,7.3  c0.1,0.7,0.2,1.4,0.2,2.1C68,45.6,61.1,56,53,56z M38,61.3c0,0.6-0.4,1-1,1c-8.3,0-15,6.7-15,15c0,0.6-0.4,1-1,1s-1-0.4-1-1  c0-9.4,7.6-17,17-17C37.6,60.3,38,60.8,38,61.3z M86,77.3c0,0.6-0.4,1-1,1s-1-0.4-1-1c0-8.3-6.7-15-15-15c-0.6,0-1-0.4-1-1  s0.4-1,1-1C78.4,60.3,86,67.9,86,77.3z" />
</svg>
