<?xml version="1.0" encoding="UTF-8" standalone="no"?>
<svg
   xmlns:dc="http://purl.org/dc/elements/1.1/"
   xmlns:cc="http://creativecommons.org/ns#"
   xmlns:rdf="http://www.w3.org/1999/02/22-rdf-syntax-ns#"
   xmlns:svg="http://www.w3.org/2000/svg"
   xmlns="http://www.w3.org/2000/svg"
   xmlns:sodipodi="http://sodipodi.sourceforge.net/DTD/sodipodi-0.dtd"
   xmlns:inkscape="http://www.inkscape.org/namespaces/inkscape"
   version="1.1"
   id="http://ethon.consensys.net/icons/ExternalActor_M_2"
   x="0px"
   y="0px"
   viewBox="0 0 106 106"
   sodipodi:docname="ExternalActor_M_2.svg"
   inkscape:version="0.92.1 r">
  <metadata
     id="metadata10">
    <rdf:RDF>
      <cc:Work
         rdf:about="">
        <dc:format>image/svg+xml</dc:format>
        <dc:type
           rdf:resource="http://purl.org/dc/dcmitype/StillImage" />
      </cc:Work>
    </rdf:RDF>
  </metadata>
  <defs
     id="defs8" />
  <sodipodi:namedview
     pagecolor="#ffffff"
     bordercolor="#666666"
     borderopacity="1"
     objecttolerance="10"
     gridtolerance="10"
     guidetolerance="10"
     inkscape:pageopacity="0"
     inkscape:pageshadow="2"
     inkscape:window-width="1920"
     inkscape:window-height="1043"
     id="namedview6"
     showgrid="false"
     inkscape:zoom="2.2264151"
     inkscape:cx="-94.535415"
     inkscape:cy="30.325945"
     inkscape:window-x="0"
     inkscape:window-y="0"
     inkscape:window-maximized="1"
     inkscape:current-layer="http://ethon.consensys.net/icons/ExternalActor_M_2" />
  <style
     type="text/css"
     id="style2">
	.st0{fill:#333333;}
</style>
  <path
     d="m 52.999995,20 c -9.4,0 -17,7.6 -17,17 0,9.50001 7.6,21 17,21 9.4,0 17,-11.49999 17,-21 0,-9.4 -7.6,-17 -17,-17 z m -15,41.3 c 0,0.6 -0.4,1 -1,1 -8.3,0 -15,6.7 -15,15 0,0.6 -0.4,1 -1,1 -0.6,0 -1,-0.4 -1,-1 0,-9.4 7.6,-16.99999 17,-16.99999 0.6,0 1,0.49999 1,0.99999 z m 48.00001,16 c 0,0.6 -0.4,1 -1,1 -0.6,0 -1,-0.4 -1,-1 0,-8.3 -6.70001,-15 -15.00001,-15 -0.6,0 -1,-0.4 -1,-1 0,-0.6 0.4,-0.99999 1,-0.99999 9.4,0 17.00001,7.59999 17.00001,16.99999 z"
     class="st0"
     id="ExternalActor_M_1_icon"
     inkscape:connector-curvature="0"
     style="fill:#333333;stroke-width:1;opacity:0.01"
     sodipodi:nodetypes="sssssssssssssssssss" />
  <path
     id="ExternalActor_M_2_icon"
     class="st0"
     d="M70,36.8c0-0.1,0-0.2,0-0.3C69.7,27.4,62.2,20,53,20  c-9.4,0-17,7.6-17,17c0,9.5,7.6,21,17,21s17-11.5,17-21C70,36.9,70,36.9,70,36.8z M53,22c7.7,0,14.1,5.9,14.9,13.4  c-6.7-1.7-12.8-5.1-17.8-9.9c0,0-0.1-0.1-0.1-0.1c-0.1,0-0.1-0.1-0.2-0.1c-0.1,0-0.1,0-0.2,0c-0.1,0-0.1,0-0.2,0c-0.1,0-0.1,0-0.2,0  c-0.1,0-0.1,0-0.2,0c-0.1,0-0.1,0.1-0.2,0.1c-0.1,0-0.1,0.1-0.2,0.1c-3,2.9-6.3,5.2-10,7C40.6,26.4,46.3,22,53,22z M53,56  c-8.1,0-15-10.4-15-19c0-0.7,0.1-1.4,0.2-2c4.1-1.9,7.9-4.4,11.2-7.4c5.3,4.8,11.7,8.3,18.6,10C67.7,46,60.9,56,53,56z M38,61.3  c0,0.6-0.4,1-1,1c-8.3,0-15,6.7-15,15c0,0.6-0.4,1-1,1s-1-0.4-1-1c0-9.4,7.6-17,17-17C37.6,60.3,38,60.8,38,61.3z M86,77.3  c0,0.6-0.4,1-1,1s-1-0.4-1-1c0-8.3-6.7-15-15-15c-0.6,0-1-0.4-1-1s0.4-1,1-1C78.4,60.3,86,67.9,86,77.3z M62,47c0,0.6-0.4,1-1,1  s-1-0.4-1-1c0-0.6-0.4-1-1-1H47c-0.6,0-1,0.4-1,1c0,0.6-0.4,1-1,1s-1-0.4-1-1c0-1.7,1.3-3,3-3h12C60.7,44,62,45.3,62,47z" />
</svg>
