<?xml version="1.0" encoding="UTF-8" standalone="no"?>
<svg
   xmlns:dc="http://purl.org/dc/elements/1.1/"
   xmlns:cc="http://creativecommons.org/ns#"
   xmlns:rdf="http://www.w3.org/1999/02/22-rdf-syntax-ns#"
   xmlns:svg="http://www.w3.org/2000/svg"
   xmlns="http://www.w3.org/2000/svg"
   xmlns:sodipodi="http://sodipodi.sourceforge.net/DTD/sodipodi-0.dtd"
   xmlns:inkscape="http://www.inkscape.org/namespaces/inkscape"
   version="1.1"
   id="http://ethon.consensys.net/icons/FullNode_icon"
   width="64"
   height="64"
   viewBox="-14 -14 134 134"
   sodipodi:docname="FullNode.svg"
   inkscape:version="0.92.1 r">
  <metadata
     id="metadata11">
    <rdf:RDF>
      <cc:Work
         rdf:about="">
        <dc:format>image/svg+xml</dc:format>
        <dc:type
           rdf:resource="http://purl.org/dc/dcmitype/StillImage" />
      </cc:Work>
    </rdf:RDF>
  </metadata>
  <defs
     id="defs9" />
  <sodipodi:namedview
     pagecolor="#ffffff"
     bordercolor="#666666"
     borderopacity="1"
     objecttolerance="10"
     gridtolerance="10"
     guidetolerance="10"
     inkscape:pageopacity="0"
     inkscape:pageshadow="2"
     inkscape:window-width="2560"
     inkscape:window-height="1403"
     id="namedview7"
     showgrid="false"
     inkscape:zoom="3.6875"
     inkscape:cx="32.542373"
     inkscape:cy="32"
     inkscape:window-x="0"
     inkscape:window-y="0"
     inkscape:window-maximized="1"
     inkscape:current-layer="http://ethon.consensys.net/icons/FullNode_icon" />
  <style
     type="text/css"
     id="style2">
	.st0{fill:#414042;}
</style>
  <path
     id="path908"
     d="m 65.7,64.299999 c 2.7,-3 4.3,-6.9 4.3,-11.299999 0,-4.3 -1.6,-8.299999 -4.3,-11.3 l 20,-20.000001 c 0.4,-0.4 0.4,-1 0,-1.4 -0.4,-0.4 -1,-0.4 -1.4,0 l -20,20 C 61.3,37.599999 57.4,36 53,36 c -4.3,0 -8.3,1.599999 -11.3,4.299999 l -20,-20 c -0.4,-0.4 -1,-0.4 -1.4,0 -0.4,0.4 -0.4,1 0,1.4 l 20,20 C 37.6,44.7 36,48.6 36,53 c 0,4.299999 1.6,8.299999 4.3,11.299999 L 20.3,84.3 c -0.4,0.399999 -0.4,0.999999 0,1.400001 C 20.5,85.900001 20.8,86 21,86 c 0.2,0 0.5,-0.100004 0.7,-0.299999 L 41.7,65.7 c 3,2.700001 6.9,4.3 11.3,4.3 4.3,0 8.3,-1.599999 11.3,-4.3 l 20,20.000001 C 84.5,85.900001 84.8,86 85,86 85.2,86 85.5,85.899996 85.7,85.700001 86.1,85.299999 86.1,84.7 85.7,84.3 Z"
     class="st0"
     inkscape:connector-curvature="0"
     style="fill:#ffffff;stroke-width:1;opacity:0.01"
     sodipodi:nodetypes="cscssscscssscscsssscscssssc" />
  <path
     class="st0"
     d="M65.7,64.3c2.7-3,4.3-6.9,4.3-11.3c0-4.3-1.6-8.3-4.3-11.3l20-20c0.4-0.4,0.4-1,0-1.4  s-1-0.4-1.4,0l-20,20c-3-2.7-6.9-4.3-11.3-4.3c-4.3,0-8.3,1.6-11.3,4.3l-20-20c-0.4-0.4-1-0.4-1.4,0s-0.4,1,0,1.4l20,20  c-2.7,3-4.3,6.9-4.3,11.3c0,4.3,1.6,8.3,4.3,11.3l-20,20c-0.4,0.4-0.4,1,0,1.4c0.2,0.2,0.5,0.3,0.7,0.3s0.5-0.1,0.7-0.3l20-20  c3,2.7,6.9,4.3,11.3,4.3c4.3,0,8.3-1.6,11.3-4.3l20,20c0.2,0.2,0.5,0.3,0.7,0.3s0.5-0.1,0.7-0.3c0.4-0.4,0.4-1,0-1.4L65.7,64.3z   M66,60H39.8c0,0,0,0-0.1,0c-1-1.8-1.6-3.9-1.7-6H68c-0.1,2.2-0.7,4.2-1.7,6.1C66.2,60,66.1,60,66,60z M39.7,46h26.2  c0.1,0,0.2,0,0.3-0.1c1,1.8,1.6,3.9,1.7,6H38.1C38.2,49.8,38.8,47.8,39.7,46z M65,44H41c2.7-3.6,7.1-6,12-6S62.2,40.4,65,44z M41,62  H65c-2.7,3.6-7.1,6-12,6S43.8,65.6,41,62z"
     id="path4" />
</svg>
