<?xml version="1.0" encoding="UTF-8" standalone="no"?>
<svg
   xmlns:dc="http://purl.org/dc/elements/1.1/"
   xmlns:cc="http://creativecommons.org/ns#"
   xmlns:rdf="http://www.w3.org/1999/02/22-rdf-syntax-ns#"
   xmlns:svg="http://www.w3.org/2000/svg"
   xmlns="http://www.w3.org/2000/svg"
   xmlns:sodipodi="http://sodipodi.sourceforge.net/DTD/sodipodi-0.dtd"
   xmlns:inkscape="http://www.inkscape.org/namespaces/inkscape"
   version="1.1"
   id="http://ethon.consensys.net/icons/LogEntry"
   x="0px"
   y="0px"
   viewBox="0 0 106 106"
   sodipodi:docname="LogEntry.svg"
   inkscape:version="0.92.1 r">
  <metadata
     id="metadata10">
    <rdf:RDF>
      <cc:Work
         rdf:about="">
        <dc:format>image/svg+xml</dc:format>
        <dc:type
           rdf:resource="http://purl.org/dc/dcmitype/StillImage" />
      </cc:Work>
    </rdf:RDF>
  </metadata>
  <defs
     id="defs8" />
  <sodipodi:namedview
     pagecolor="#ffffff"
     bordercolor="#666666"
     borderopacity="1"
     objecttolerance="10"
     gridtolerance="10"
     guidetolerance="10"
     inkscape:pageopacity="0"
     inkscape:pageshadow="2"
     inkscape:window-width="1920"
     inkscape:window-height="1043"
     id="namedview6"
     showgrid="false"
     inkscape:zoom="2.2264151"
     inkscape:cx="23.276098"
     inkscape:cy="87.724206"
     inkscape:window-x="0"
     inkscape:window-y="0"
     inkscape:window-maximized="1"
     inkscape:current-layer="http://ethon.consensys.net/icons/LogEntry" />
  <style
     type="text/css"
     id="style2">
	.st0{fill:#333333;}
</style>
  <path
     d="m 78.000006,54.100002 v 28.9 c 0,1.7 -1.30001,3 -3.000004,3 h -44 c -1.699997,0 -3,-1.3 -3,-3 V 22.999998 c 0,-1.699997 1.300003,-3 3,-3 h 44 c 1.699994,0 3.000004,1.300003 3.000004,3 v 4.300004 c 0,0.6 -0.4,1 -1,1 -0.6,0 -1,-0.4 -1,-1 -10.730401,7.66045 -5.14881,25.26781 0,26.8 0,-0.6 0.4,-1 1,-1 0.6,0 1,0.5 1,1 z m 6.29999,-15.4 c 0.2,0.2 0.30001,0.4 0.30001,0.7 0,0.3 -0.10001,0.5 -0.30001,0.7 -39.054415,43.26357 -46.706328,32.47615 -7,-7.1 0.4,-0.4 1,-0.4 1.4,0 z m 5.2,-3.8 -2.4,2.4 c -0.2,0.2 -0.49999,0.3 -0.69999,0.3 -0.2,0 -0.50001,-0.1 -0.70001,-0.3 l -5.69999,-5.6 c -0.4,-0.4 -0.4,-1 0,-1.4 l 2.4,-2.4 v 0 c 1.2,-1.2 3.09999,-1.2 4.2,0 l 2.8,2.8 c 1.29999,1.1 1.29999,3 0.1,4.2 z"
     class="st0"
     id="LogEntry_icon-3"
     inkscape:connector-curvature="0"
     style="fill:#333333;stroke-width:1;opacity:0.01"
     sodipodi:nodetypes="sssssssssssccsscsccccsssccsccccs" />
  <path
     id="LogEntry_icon"
     class="st0"
     d="M78,54.1V83c0,1.7-1.3,3-3,3H31c-1.7,0-3-1.3-3-3V23c0-1.7,1.3-3,3-3h44  c1.7,0,3,1.3,3,3v4.3c0,0.6-0.4,1-1,1s-1-0.4-1-1V23c0-0.6-0.4-1-1-1H31c-0.6,0-1,0.4-1,1v60c0,0.6,0.4,1,1,1h44c0.6,0,1-0.4,1-1  V54.1c0-0.6,0.4-1,1-1S78,53.6,78,54.1z M84.3,38.7c0.2,0.2,0.3,0.4,0.3,0.7s-0.1,0.5-0.3,0.7L53.9,70.5c-0.2,0.2-0.5,0.3-0.7,0.3  s-0.5-0.1-0.7-0.3l-5.7-5.7c-0.4-0.4-0.4-1,0-1.4L77.3,33c0.4-0.4,1-0.4,1.4,0L84.3,38.7z M82.2,39.4L78,35.1l-29,29l4.2,4.2  L82.2,39.4z M89.5,34.9l-2.4,2.4c-0.2,0.2-0.5,0.3-0.7,0.3s-0.5-0.1-0.7-0.3L80,31.7c-0.4-0.4-0.4-1,0-1.4l2.4-2.4c0,0,0,0,0,0  c1.2-1.2,3.1-1.2,4.2,0l2.8,2.8C90.7,31.8,90.7,33.7,89.5,34.9z M88.1,32.1l-2.8-2.8c-0.4-0.4-1-0.4-1.4,0L82.1,31l4.2,4.2l1.7-1.7  C88.5,33.1,88.5,32.5,88.1,32.1z M44.3,66.2c0.3-0.1,0.7,0,0.9,0.3l5.6,5.6c0.2,0.2,0.3,0.6,0.3,0.9c-0.1,0.3-0.3,0.6-0.6,0.7  l-8.8,3.2c-0.1,0-0.2,0.1-0.3,0.1c-0.3,0-0.5-0.1-0.7-0.3c-0.3-0.3-0.4-0.7-0.2-1l3.2-8.8C43.7,66.5,44,66.3,44.3,66.2z M43,74.3  l5.3-1.9L45,69L43,74.3z" />
</svg>
