<?xml version="1.0" encoding="UTF-8" standalone="no"?>
<svg
   xmlns:dc="http://purl.org/dc/elements/1.1/"
   xmlns:cc="http://creativecommons.org/ns#"
   xmlns:rdf="http://www.w3.org/1999/02/22-rdf-syntax-ns#"
   xmlns:svg="http://www.w3.org/2000/svg"
   xmlns="http://www.w3.org/2000/svg"
   xmlns:sodipodi="http://sodipodi.sourceforge.net/DTD/sodipodi-0.dtd"
   xmlns:inkscape="http://www.inkscape.org/namespaces/inkscape"
   version="1.1"
   id="http://ethon.consensys.net/icons/CallContractMsg_icon"
   width="213.22221"
   height="200.465"
   viewBox="0 0 353.14929 332.02015"
   sodipodi:docname="silhouettes.svg"
   inkscape:version="0.92.1 r">
  <metadata
     id="metadata11">
    <rdf:RDF>
      <cc:Work
         rdf:about="">
        <dc:format>image/svg+xml</dc:format>
        <dc:type
           rdf:resource="http://purl.org/dc/dcmitype/StillImage" />
        <dc:title />
      </cc:Work>
    </rdf:RDF>
  </metadata>
  <defs
     id="defs9" />
  <sodipodi:namedview
     pagecolor="#ffffff"
     bordercolor="#666666"
     borderopacity="1"
     objecttolerance="10"
     gridtolerance="10"
     guidetolerance="10"
     inkscape:pageopacity="0"
     inkscape:pageshadow="2"
     inkscape:window-width="1920"
     inkscape:window-height="983"
     id="namedview7"
     showgrid="false"
     inkscape:zoom="1.4142136"
     inkscape:cx="-118.86855"
     inkscape:cy="138.43796"
     inkscape:window-x="1920"
     inkscape:window-y="27"
     inkscape:window-maximized="1"
     inkscape:current-layer="http://ethon.consensys.net/icons/CallContractMsg_icon"
     fit-margin-top="5"
     fit-margin-left="5"
     fit-margin-right="5"
     fit-margin-bottom="5" />
  <style
     type="text/css"
     id="style2">
	.st0{fill:#333333;}
</style>
  <path
     id="path818"
     d="m 215.54966,156.8367 v -33 c 0,-1.7 -1.3,-3 -3,-3 h -76 c -1.7,0 -3,1.3 -3,3 v 44 c 0,1.7 1.3,3 3,3 h 13 v 7.3 c 0,0.4 0.3,0.8 0.7,0.9 0.1,0 0.2,0.1 0.3,0.1 0.3,0 0.6,-0.1 0.8,-0.3 l 6.9,-8 h 43.5 c 0.5,6.7 6.1,12 12.9,12 7.2,0 13,-5.8 13,-13 -0.1,-6.9 -5.4,-12.5 -12.1,-13 z"
     class="st0"
     inkscape:connector-curvature="0"
     style="fill:#333333"
     sodipodi:nodetypes="csssssscscscccscc" />
  <style
     id="style820"
     type="text/css">
	.st0{fill:#333333;}
</style>
  <path
     id="path822"
     d="m 87.28125,122.6867 h -76 c -1.7,0 -3,1.3 -3,3 v 44 c 0,1.7 1.3,3 3,3 h 13 v 7.3 c 0,0.4 0.3,0.8 0.7,0.9 0.1,0 0.2,0.1 0.3,0.1 0.3,0 0.6,-0.1 0.8,-0.3 l 6.9,-8 h 54.3 c 1.7,0 3,-1.3 3,-3 v -44 c 0,-1.7 -1.3,-3 -3,-3 z"
     class="st0"
     inkscape:connector-curvature="0"
     style="fill:#333333"
     sodipodi:nodetypes="ssssscscsccssss" />
  <style
     id="style2-5"
     type="text/css">
	.st0{fill:#333333;}
</style>
  <path
     id="path4488"
     d="m 77.28125,313.8389 h -11 v -5.1 c 0,-1.7 -1.3,-3 -3,-3 h -28 c -1.7,0 -3,1.3 -3,3 v 5.1 h -11 c -0.6,0 -1,0.4 -1,1 0,0.6 0.4,1 1,1 h 11 v 4.9 c 0,1.7 1.3,3 3,3 h 28 c 1.7,0 3,-1.3 3,-3 v -4.9 h 11 c 0.6,0 1,-0.4 1,-1 0,-0.6 -0.4,-1 -1,-1 z"
     class="st0"
     inkscape:connector-curvature="0"
     style="opacity:1;fill:#333333;fill-opacity:1"
     sodipodi:nodetypes="scsssscssscsssscsss" />
  <style
     id="style2-2"
     type="text/css">
	.st0{fill:#333333;}
</style>
  <path
     id="path818-9"
     d="m 221.59966,306.7389 c 0,-0.6 -0.4,-1 -1,-1 h -14 c -1.7,0 -3,1.3 -3,3 v 5.1 h -6 v -5.1 c 0,-1.7 -1.3,-3 -3,-3 h -28 c -1.7,0 -3,1.3 -3,3 v 5.1 h -6 v -5.1 c 0,-1.7 -1.3,-3 -3,-3 h -14 c -0.6,0 -1,0.4 -1,1 0,0.90687 0,15.27996 0,16 0,0.6 0.4,1 1,1 h 14 c 1.7,0 3,-1.3 3,-3 v -4.9 h 6 v 4.9 c 0,1.7 1.3,3 3,3 h 28 c 1.7,0 3,-1.3 3,-3 v -4.9 h 6 v 4.9 c 0,1.7 1.3,3 3,3 h 14 c 0.6,0 1,-0.4 1,-1 0,-0.77541 0,-15.2412 0,-16 z"
     class="st0"
     inkscape:connector-curvature="0"
     style="opacity:1;fill:#333333;fill-opacity:1"
     sodipodi:nodetypes="csssccssssccsssccsssccssssccssscc" />
  <style
     id="style880"
     type="text/css">
	.st0{fill:#333333;}
</style>
  <path
     id="path882"
     d="m 335.86805,62.73125 c -3,0 -5.6,1.5 -7.2,3.7 l -8.9,-6.2 c 0.7,-1.3 1.2,-2.8 1.2,-4.4 0,-4.6 -3.5,-8.5 -8,-8.9 v -11.2 c 4.5,-0.5 8,-4.3 8,-8.9 0,-5 -4,-9 -9,-9 -5,0 -9,4 -9,9 0,4.6 3.5,8.4 8,8.9 v 11.2 c -4.5,0.5 -8,4.3 -8,8.9 0,1.6 0.4,3.1 1.2,4.4 l -8.9,6.3 c -1.6,-2.3 -4.3,-3.8 -7.3,-3.8 -5,0 -9,4 -9,9 0,5 4,9 9,9 5,0 9,-4 9,-9 0,-1.2 -0.3,-2.4 -0.7,-3.5 l 9,-6.4 c 1.6,1.8 4,3 6.7,3 2.6,0 5,-1.1 6.6,-2.9 l 9,6.3 c -0.5,1 -0.7,2.2 -0.7,3.5 0,5 4,9 9,9 5,0 9,-4 9,-9 0,-5 -4.1,-9 -9,-9 z"
     class="st0"
     inkscape:connector-curvature="0"
     style="fill:#333333"
     sodipodi:nodetypes="sccsccsssccsccssssccsccssss" />
  <style
     id="style893"
     type="text/css">
	.st0{fill:#333333;}
</style>
  <path
     id="path895"
     d="m 50.29271,9.28125 v 80 c 0,0.6 -0.4,1 -1,1 -0.6,0 -1,-0.4 -1,-1 v -80 c 0,-0.6 0.4,-1 1,-1 0.6,0 1,0.4 1,1 z m 31.7,48.7 -24,24 c -0.2,0.2 -0.4,0.3 -0.7,0.3 -0.1,0 -0.3,0 -0.4,-0.1 -0.3,-0.1 -0.6,-0.5 -0.6,-0.9 v -64 c 0,-0.4 0.3,-0.8 0.7,-1 0.4,-0.1 0.9,0.1 1.1,0.5 l 24,40 c 0.3,0.4 0.2,0.9 -0.1,1.2 z m -39.7,-40.7 v 64 c 0,0.4 -0.2,0.8 -0.6,0.9 -0.1,0.1 -0.2,0.1 -0.4,0.1 -0.3,0 -0.5,-0.1 -0.7,-0.3 l -24,-24 c -0.3,-0.3 -0.4,-0.8 -0.2,-1.2 l 24,-40 c 0.2,-0.4 0.7,-0.6 1.1,-0.4 0.5,0 0.8,0.4 0.8,0.9 z"
     class="st0"
     inkscape:connector-curvature="0"
     style="fill:#333333"
     sodipodi:nodetypes="sssssssssscsscccssscssscccs" />
  <style
     id="style906"
     type="text/css">
	.st0{fill:#414042;}
</style>
  <path
     id="path908"
     d="m 193.29966,60.58125 c 2.7,-3 4.3,-6.9 4.3,-11.3 0,-4.3 -1.6,-8.3 -4.3,-11.3 l 20,-20 c 0.4,-0.4 0.4,-1 0,-1.4 -0.4,-0.4 -1,-0.4 -1.4,0 l -20,20 c -3,-2.7 -6.9,-4.3 -11.3,-4.3 -4.3,0 -8.3,1.6 -11.3,4.3 l -20,-20 c -0.4,-0.4 -1,-0.4 -1.4,0 -0.4,0.4 -0.4,1 0,1.4 l 20,20 c -2.7,3 -4.3,6.9 -4.3,11.3 0,4.3 1.6,8.3 4.3,11.3 l -20,20 c -0.4,0.4 -0.4,1 0,1.4 0.2,0.2 0.5,0.3 0.7,0.3 0.2,0 0.5,-0.1 0.7,-0.3 l 20,-20 c 3,2.7 6.9,4.3 11.3,4.3 4.3,0 8.3,-1.6 11.3,-4.3 l 20,20 c 0.2,0.2 0.5,0.3 0.7,0.3 0.2,0 0.5,-0.1 0.7,-0.3 0.4,-0.4 0.4,-1 0,-1.4 z"
     class="st0"
     inkscape:connector-curvature="0"
     style="fill:#414042"
     sodipodi:nodetypes="cscssscscssscscsssscscssssc" />
  <style
     id="style919"
     type="text/css">
	.st0{fill:#333333;}
</style>
  <path
     id="path921"
     d="m 85.28125,253.06763 v 0 0 h -15.1 l 0.1,-31 c 0,-5 -4,-9 -9,-9 h -40 v 0 c -4.9,0 -9,4 -9,9 0,0.6 0.4,1 1,1 h 15 v 29 2 c 0,4.9 4,9 9,9 v 0 h 40 c 5,0 9,-4 9,-9 0,-0.6 -0.5,-1 -1,-1 z"
     class="st0"
     inkscape:connector-curvature="0"
     style="fill:#333333"
     sodipodi:nodetypes="cccccsccssccsccssc" />
  <style
     id="style4497"
     type="text/css">
	.st0{fill:#333333;}
</style>
  <path
     d="m 319.72663,166.7253 h 24.67812 c 0.6625,0 1.325,-0.33125 1.49063,-0.99375 0.33125,-0.6625 0.16562,-1.325 -0.33125,-1.82188 -7.2875,-7.12187 -11.2625,-16.72812 -11.2625,-26.99687 v 0 c -0.16563,-15.40313 -12.75313,-27.99063 -28.15625,-27.99063 -15.40312,0 -27.99061,12.5875 -28.15624,27.99063 v 0 c 0,10.26875 -3.975,19.875 -11.2625,26.99687 -0.49687,0.49688 -0.6625,1.15938 -0.33125,1.82188 0.33125,0.6625 0.82813,0.99375 1.49063,0.99375 h 24.51249 0.16562 c 3.975,3.14687 8.6125,5.13437 13.58125,5.13437 4.96875,0 9.60625,-1.9875 13.58125,-5.13437 z m -38.42499,10.59999 c 0,0.99375 -0.6625,1.65625 -1.65625,1.65625 -13.74687,0 -24.84375,11.09688 -24.84375,24.84375 0,0.99375 -0.6625,1.65625 -1.65625,1.65625 -0.99375,0 -1.65625,-0.6625 -1.65625,-1.65625 0,-15.56875 12.5875,-28.15624 28.15625,-28.15624 0.99375,0 1.65625,0.82812 1.65625,1.65624 z m 79.5,26.5 c 0,0.99375 -0.6625,1.65625 -1.65625,1.65625 -0.99375,0 -1.65625,-0.6625 -1.65625,-1.65625 0,-13.74687 -11.09689,-24.84375 -24.84376,-24.84375 -0.99375,0 -1.65625,-0.6625 -1.65625,-1.65625 0,-0.99375 0.6625,-1.65624 1.65625,-1.65624 15.56875,0 28.15626,12.58749 28.15626,28.15624 z"
     class="st0"
     id="ExternalActor_F_1_icon"
     inkscape:connector-curvature="0"
     style="fill:#333333;stroke-width:1.65625"
     sodipodi:nodetypes="csccccscccssccscssssssssssssss" />
  <style
     id="style4509"
     type="text/css">
	.st0{fill:#333333;}
</style>
  <path
     d="m 323.14598,288.13677 v -0.16562 c 0,-0.33125 0,-0.49688 -0.16563,-0.82813 -1.9875,-3.47812 -3.3125,-10.43437 -3.3125,-15.2375 v -0.16562 c 2.31875,-4.96875 3.64375,-10.43438 3.64375,-15.40313 0,-15.56875 -12.5875,-28.15625 -28.15624,-28.15625 -15.56875,0 -28.15625,12.5875 -28.15625,28.15625 0,5.13438 1.325,10.76563 3.80937,15.73438 0,4.6375 -1.325,11.42812 -3.3125,15.07187 -0.16562,0.33125 -0.16562,0.49688 -0.16562,0.82813 v 0.16562 c 0,0.99375 0.6625,1.65625 1.65625,1.65625 h 19.2125 c 2.31875,0.82813 4.6375,1.325 6.95625,1.325 2.31875,0 4.80312,-0.49687 6.95625,-1.325 h 19.37812 c 0.99375,0 1.65625,-0.6625 1.65625,-1.65625 z m -53,8.44687 c 0,0.99375 -0.6625,1.65625 -1.65625,1.65625 -13.74687,0 -24.84375,11.09688 -24.84375,24.84375 0,0.99375 -0.6625,1.65625 -1.65625,1.65625 -0.99375,0 -1.65625,-0.6625 -1.65625,-1.65625 0,-15.56875 12.5875,-28.15624 28.15625,-28.15624 0.99375,0 1.65625,0.82812 1.65625,1.65624 z m 79.5,26.5 c 0,0.99375 -0.6625,1.65625 -1.65625,1.65625 -0.99375,0 -1.65625,-0.6625 -1.65625,-1.65625 0,-13.74687 -11.09688,-24.84375 -24.84375,-24.84375 -0.99375,0 -1.65625,-0.6625 -1.65625,-1.65625 0,-0.99375 0.6625,-1.65624 1.65625,-1.65624 15.56875,0 28.15625,12.58749 28.15625,28.15624 z"
     class="st0"
     id="ExternalActor_F_2_icon"
     inkscape:connector-curvature="0"
     style="fill:#333333;stroke-width:1.65625"
     sodipodi:nodetypes="sscscsssccssscscssssssssssssssss" />
  <style
     id="style4521"
     type="text/css">
	.st0{fill:#333333;}
</style>
  <path
     d="m 57.798011,346.18833 c -15.56875,0 -28.15625,12.5875 -28.15625,28.15625 0,15.73438 12.5875,34.78125 28.15625,34.78125 15.56876,0 28.15626,-19.04687 28.15626,-34.78125 0,-15.56875 -12.5875,-28.15625 -28.15626,-28.15625 z m -24.84375,68.40312 c 0,0.99375 -0.6625,1.65625 -1.65625,1.65625 -13.74688,0 -24.8437501,11.09688 -24.8437501,24.84375 0,0.99375 -0.6625,1.65625 -1.65625,1.65625 -0.99375,0 -1.65625,-0.6625 -1.65625,-1.65625 0,-15.56875 12.5875001,-28.15624 28.1562501,-28.15624 0.99375,0 1.65625,0.82812 1.65625,1.65624 z m 79.500009,26.5 c 0,0.99375 -0.6625,1.65625 -1.65625,1.65625 -0.99375,0 -1.65625,-0.6625 -1.65625,-1.65625 0,-13.74687 -11.096879,-24.84375 -24.843749,-24.84375 -0.99375,0 -1.65625,-0.6625 -1.65625,-1.65625 0,-0.99375 0.6625,-1.65624 1.65625,-1.65624 15.56875,0 28.156249,12.58749 28.156249,28.15624 z"
     class="st0"
     id="ExternalActor_M_1_icon"
     inkscape:connector-curvature="0"
     style="fill:#333333;stroke-width:1.65625"
     sodipodi:nodetypes="sssssssssssssssssss" />
  <style
     id="style4533"
     type="text/css">
	.st0{fill:#333333;}
</style>
  <style
     id="style4545"
     type="text/css">
	.st0{fill:#333333;}
</style>
  <path
     d="m 185.93807,240.08227 v -33.125 c 0,-2.81563 -2.15313,-4.96875 -4.96875,-4.96875 h -46.375 c -2.81562,0 -4.96875,2.15312 -4.96875,4.96875 v 33.125 c 0,2.81562 2.15313,4.96875 4.96875,4.96875 h 46.375 c 2.81562,0 4.96875,-2.31875 4.96875,-4.96875 z m -53,16.5625 c 0,0.99375 -0.6625,1.65625 -1.65625,1.65625 h -23.18749 c -0.99375,0 -1.65625,0.6625 -1.65625,1.65625 v 23.1875 c 0,0.99375 -0.6625,1.65625 -1.65625,1.65625 -0.99375,0 -1.65625,-0.6625 -1.65625,-1.65625 v -23.1875 c 0,-2.81563 2.15312,-4.96875 4.96875,-4.96875 h 23.18749 c 0.99375,0 1.65625,0.6625 1.65625,1.65625 z m 79.5,3.3125 v 23.1875 c 0,0.99375 -0.6625,1.65625 -1.65625,1.65625 -0.99375,0 -1.65625,-0.6625 -1.65625,-1.65625 v -23.1875 c 0,-0.99375 -0.6625,-1.65625 -1.65625,-1.65625 h -23.1875 c -0.99375,0 -1.65625,-0.6625 -1.65625,-1.65625 0,-0.99375 0.6625,-1.65625 1.65625,-1.65625 h 23.1875 c 2.81562,0 4.96875,2.15312 4.96875,4.96875 z m -23.1875,-29.8125 v -13.25 c 0,-0.99375 0.6625,-1.65625 1.65625,-1.65625 0.99375,0 1.65625,0.6625 1.65625,1.65625 v 13.25 c 0,0.99375 -0.6625,1.65625 -1.65625,1.65625 -0.99375,0 -1.65625,-0.82813 -1.65625,-1.65625 z m -65.75312,0 v -13.25 c 0,-0.99375 0.6625,-1.65625 1.65625,-1.65625 0.99375,0 1.65625,0.6625 1.65625,1.65625 v 13.25 c 0,0.99375 -0.6625,1.65625 -1.65625,1.65625 -0.99375,0 -1.65625,-0.82813 -1.65625,-1.65625 z"
     class="st0"
     id="ExternalActor_R_icon"
     inkscape:connector-curvature="0"
     style="fill:#333333;stroke-width:1.65625"
     sodipodi:nodetypes="sssssssssssssssssssssssssssssssssssssssssssss" />
  <style
     id="style2-53"
     type="text/css">
	.st0{fill:#333333;}
</style>
  <g
     id="g4567"
     transform="matrix(0.79104477,0,0,0.79104477,-530.29309,87.717189)">
    <path
       sodipodi:nodetypes="ssssscscsccssss"
       style="opacity:0.01000001;fill:#ffffff;stroke-width:1"
       inkscape:connector-curvature="0"
       class="st0"
       d="M 91,27.999996 H 15 c -1.7,0 -3,1.3 -3,3.000001 v 43.999997 c 0,1.7 1.3,3 3,3 h 13 v 7.3 c 0,0.4 0.3,0.8 0.7,0.9 0.1,0 0.2,0.10001 0.3,0.10001 0.3,0 0.6,-0.10001 0.8,-0.3 l 6.9,-8 H 91 c 1.7,0 3,-1.3 3,-3 V 30.999997 c 0,-1.700001 -1.3,-3.000001 -3,-3.000001 z"
       id="path822-5" />
  </g>
  <style
     id="style4569"
     type="text/css">
	.st0{fill:#333333;}
</style>
  <path
     d="m 233.17014,400.59732 v 47.86562 c 0,2.81562 -2.15313,4.96875 -4.96875,4.96875 h -72.875 c -2.81562,0 -4.96875,-2.15313 -4.96875,-4.96875 v -99.375 c 0,-2.81562 2.15313,-4.96875 4.96875,-4.96875 h 72.875 c 2.81562,0 4.96875,2.15313 4.96875,4.96875 v 7.12188 c 0,0.99375 -0.6625,1.65625 -1.65625,1.65625 -0.99375,0 -1.65625,-0.6625 -1.65625,-1.65625 -17.77222,12.68762 -8.52771,41.8498 0,44.3875 0,-0.99375 0.6625,-1.65625 1.65625,-1.65625 0.99375,0 1.65625,0.82812 1.65625,1.65625 z m 10.43437,-25.50625 c 0.33125,0.33125 0.49688,0.6625 0.49688,1.15937 0,0.49688 -0.16563,0.82813 -0.49688,1.15938 -64.68388,71.65529 -77.35736,53.78862 -11.59375,-11.75938 0.6625,-0.6625 1.65625,-0.6625 2.31875,0 z m 8.6125,-6.29375 -3.975,3.975 c -0.33125,0.33125 -0.82812,0.49687 -1.15937,0.49687 -0.33125,0 -0.82813,-0.16562 -1.15938,-0.49687 l -9.44062,-9.275 c -0.6625,-0.6625 -0.6625,-1.65625 0,-2.31875 l 3.975,-3.975 v 0 c 1.9875,-1.9875 5.13437,-1.9875 6.95625,0 l 4.6375,4.6375 c 2.15312,1.82187 2.15312,4.96875 0.16562,6.95625 z"
     class="st0"
     id="LogEntry_icon"
     inkscape:connector-curvature="0"
     style="fill:#333333;stroke-width:1.65625"
     sodipodi:nodetypes="sssssssssssccsscsccccsssccsccccs" />
</svg>
