<?xml version="1.0" encoding="UTF-8" standalone="no"?>
<svg
   xmlns:dc="http://purl.org/dc/elements/1.1/"
   xmlns:cc="http://creativecommons.org/ns#"
   xmlns:rdf="http://www.w3.org/1999/02/22-rdf-syntax-ns#"
   xmlns:svg="http://www.w3.org/2000/svg"
   xmlns="http://www.w3.org/2000/svg"
   xmlns:sodipodi="http://sodipodi.sourceforge.net/DTD/sodipodi-0.dtd"
   xmlns:inkscape="http://www.inkscape.org/namespaces/inkscape"
   version="1.1"
   id="http://ethon.consensys.net/icons/Tx_icon"
   width="64"
   height="64"
   viewBox="-14 -14 134 134"
   sodipodi:docname="Transaction.svg"
   inkscape:version="0.92.1 r">
  <metadata
     id="metadata11">
    <rdf:RDF>
      <cc:Work
         rdf:about="">
        <dc:format>image/svg+xml</dc:format>
        <dc:type
           rdf:resource="http://purl.org/dc/dcmitype/StillImage" />
      </cc:Work>
    </rdf:RDF>
  </metadata>
  <defs
     id="defs9" />
  <sodipodi:namedview
     pagecolor="#ffffff"
     bordercolor="#666666"
     borderopacity="1"
     objecttolerance="10"
     gridtolerance="10"
     guidetolerance="10"
     inkscape:pageopacity="0"
     inkscape:pageshadow="2"
     inkscape:window-width="2560"
     inkscape:window-height="1403"
     id="namedview7"
     showgrid="false"
     inkscape:zoom="3.6875"
     inkscape:cx="32.542373"
     inkscape:cy="32"
     inkscape:window-x="0"
     inkscape:window-y="0"
     inkscape:window-maximized="1"
     inkscape:current-layer="http://ethon.consensys.net/icons/Tx_icon" />
  <style
     type="text/css"
     id="style2">
	.st0{fill:#333333;}
</style>
  <path
     id="path822"
     d="M 91.000001,28.099999 H 15 c -1.7,0 -3,1.3 -3,3 v 44.000002 c 0,1.7 1.3,3 3,3 h 13 v 7.3 c 0,0.4 0.3,0.8 0.7,0.9 0.100005,0 0.200001,0.1 0.3,0.1 0.3,0 0.6,-0.1 0.8,-0.3 l 6.900001,-7.99999 h 54.3 c 1.7,0 2.999999,-1.3 2.999999,-3 V 31.099999 c 0,-1.7 -1.299999,-3 -2.999999,-3 z"
     class="st0"
     inkscape:connector-curvature="0"
     style="fill:#ffffff;stroke-width:1;opacity:0.01"
     sodipodi:nodetypes="ssssscscsccssss" />
  <path
     class="st0"
     d="M91,28.1H15c-1.7,0-3,1.3-3,3v44c0,1.7,1.3,3,3,3h13v7.3c0,0.4,0.3,0.8,0.7,0.9  c0.1,0,0.2,0.1,0.3,0.1c0.3,0,0.6-0.1,0.8-0.3l6.9-8H91c1.7,0,3-1.3,3-3v-44C94,29.4,92.7,28.1,91,28.1z M92,75.1c0,0.6-0.4,1-1,1  H36.1c-0.3,0-0.6,0.1-0.8,0.3L30,82.7v-5.6c0-0.6-0.4-1-1-1H15c-0.6,0-1-0.4-1-1v-44c0-0.6,0.4-1,1-1h76c0.6,0,1,0.4,1,1V75.1z   M53,39.8c-5,0-9,4-9,9s4,9,9,9s9-4,9-9S58,39.8,53,39.8z M53,55.8c-3.9,0-7-3.1-7-7c0-3.9,3.1-7,7-7s7,3.1,7,7  C60,52.7,56.9,55.8,53,55.8z M43.7,56.9c0,0.6-0.4,1-1,1c-3.9,0-7,3.1-7,7c0,0.6-0.4,1-1,1s-1-0.4-1-1c0-5,4-9,9-9  C43.3,55.9,43.7,56.3,43.7,56.9z M72.3,64.9c0,0.6-0.4,1-1,1s-1-0.4-1-1c0-3.9-3.1-7-7-7c-0.6,0-1-0.4-1-1s0.4-1,1-1  C68.3,55.9,72.3,59.9,72.3,64.9z"
     id="path4" />
</svg>
