<?xml version="1.0" encoding="utf-8"?>
<svg version="1.1" id="http://ethon.consensys.net/icons/Block_icon" xmlns="http://www.w3.org/2000/svg" xmlns:xlink="http://www.w3.org/1999/xlink"
     width="64px" height="64px" viewBox="0 0 106 106">
<style type="text/css">
	.st0{fill:#333333;}
</style>
<path class="st0" d="M81,52.1H70V47c0-1.7-1.3-3-3-3H39c-1.7,0-3,1.3-3,3v5.1H25c-0.6,0-1,0.4-1,1s0.4,1,1,1h11
	V59c0,1.7,1.3,3,3,3h28c1.7,0,3-1.3,3-3v-4.9h11c0.6,0,1-0.4,1-1S81.6,52.1,81,52.1z M68,59c0,0.6-0.4,1-1,1H39c-0.6,0-1-0.4-1-1
	v-4.9h3c0.6,0,1-0.4,1-1s-0.4-1-1-1h-3V47c0-0.6,0.4-1,1-1h28c0.6,0,1,0.4,1,1v5.1h-3c-0.6,0-1,0.4-1,1s0.4,1,1,1h3V59z"/>
</svg>
