<?xml version="1.0" encoding="utf-8"?>
<svg version="1.1" id="http://ethon.consensys.net/icons/Blockchain_icon" xmlns="http://www.w3.org/2000/svg" xmlns:xlink="http://www.w3.org/1999/xlink"
	 width="64" height="64" viewBox="0 0 106 106">
<style type="text/css">
	.st0{fill:#333333;}
</style>
<path class="st0" d="M93,60H79c-0.6,0-1-0.4-1-1v-4.9h3c0.6,0,1-0.4,1-1s-0.4-1-1-1h-3V47c0-0.6,0.4-1,1-1
	H93c0.6,0,1-0.4,1-1s-0.4-1-1-1H79c-1.7,0-3,1.3-3,3v5.1h-6V47c0-1.7-1.3-3-3-3H39c-1.7,0-3,1.3-3,3v5.1h-6V47c0-1.7-1.3-3-3-3H13
	c-0.6,0-1,0.4-1,1s0.4,1,1,1H27c0.6,0,1,0.4,1,1v5.1h-3c-0.6,0-1,0.4-1,1s0.4,1,1,1h3V59c0,0.6-0.4,1-1,1H13c-0.6,0-1,0.4-1,1
	s0.4,1,1,1H27c1.7,0,3-1.3,3-3v-4.9h6V59c0,1.7,1.3,3,3,3h28c1.7,0,3-1.3,3-3v-4.9h6V59c0,1.7,1.3,3,3,3H93c0.6,0,1-0.4,1-1
	S93.5,60,93,60z M68,59c0,0.6-0.4,1-1,1H39c-0.6,0-1-0.4-1-1v-4.9h3c0.6,0,1-0.4,1-1s-0.4-1-1-1h-3V47c0-0.6,0.4-1,1-1h28
	c0.6,0,1,0.4,1,1v5.1h-3c-0.6,0-1,0.4-1,1s0.4,1,1,1h3V59z"/>
</svg>
