<?xml version="1.0" encoding="utf-8"?>
<svg version="1.1" id="http://ethon.consensys.net/icons/ContractMsg_icon" xmlns="http://www.w3.org/2000/svg" xmlns:xlink="http://www.w3.org/1999/xlink"
	 width="64" height="64" viewBox="0 0 106 106">
<style type="text/css">
	.st0{fill:#333333;}
</style>
<path class="st0" d="M91,28.1H15c-1.7,0-3,1.3-3,3v44c0,1.7,1.3,3,3,3h13v7.3c0,0.4,0.3,0.8,0.7,0.9
	c0.1,0,0.2,0.1,0.3,0.1c0.3,0,0.6-0.1,0.8-0.3l6.9-8H91c1.7,0,3-1.3,3-3v-44C94,29.4,92.7,28.1,91,28.1z M92,75.1c0,0.6-0.4,1-1,1
	H36.1c-0.3,0-0.6,0.1-0.8,0.3l-5.4,6.3v-5.6c0-0.6-0.4-1-1-1H15c-0.6,0-1-0.4-1-1v-44c0-0.6,0.4-1,1-1h76c0.6,0,1,0.4,1,1V75.1z
	 M81,60.1C81,60.1,81,60.1,81,60.1C80.9,60.1,80.9,60.1,81,60.1l-15.1,0l0.1-15c0-5-4-9-9-9H33c0,0,0,0,0,0c-4.9,0-9,4-9,9
	c0,0.6,0.4,1,1,1h15l0,13l0,2c0,4.9,4,9,9,9c0,0,0,0,0,0h24c5,0,9-4,9-9C82,60.5,81.5,60.1,81,60.1z M26.1,44.1c0.5-3.4,3.4-6,6.9-6
	s6.4,2.6,6.9,6H26.1z M49,68.1c-3.9,0-7-3.1-7-7l0-2l0-14c0-2.8-1.3-5.4-3.4-7h18.3c3.9,0,7,3.1,7,7l-0.1,15H57c-0.6,0-1,0.4-1,1
	C56,64.9,52.8,68.1,49,68.1z M73,68.1H54.6c1.8-1.5,3-3.6,3.3-6h22C79.4,65.4,76.5,68.1,73,68.1z"/>
</svg>
