<?xml version="1.0" encoding="utf-8"?>
<svg version="1.1" id="http://ethon.consensys.net/icons/ContractAccount_icon" xmlns="http://www.w3.org/2000/svg" xmlns:xlink="http://www.w3.org/1999/xlink"
	 width="64" height="64" viewBox="0 0 106 106">
<style type="text/css">
	.st0{fill:#333333;}
</style>
<path class="st0" d="M89,68C89,68,89,68,89,68C89,68,89,68,89,68l-15.1,0L74,37c0-5-4-9-9-9H25
	c0,0,0,0,0,0c-4.9,0-9,4-9,9c0,0.6,0.4,1,1,1h15l0,29l0,2c0,4.9,4,9,9,9c0,0,0,0,0,0h40c5,0,9-4,9-9C90,68.4,89.5,68,89,68z
	 M18.1,36c0.5-3.4,3.4-6,6.9-6s6.4,2.6,6.9,6H18.1z M34,69l0-2l0-30c0-2.8-1.3-5.4-3.4-7H65c3.9,0,7,3.1,7,7l-0.1,31H49
	c-0.6,0-1,0.4-1,1c0,3.9-3.1,7-7,7S34,72.9,34,69z M81,76H46.6c1.8-1.5,3-3.6,3.3-6h38C87.4,73.4,84.5,76,81,76z M38.2,51
	c-0.1-0.1-0.2-0.2-0.2-0.3c-0.1-0.4-0.1-0.8,0.2-1.1c0,0,0,0,0,0l7.8-7.8c0.4-0.4,1-0.4,1.4,0s0.4,1,0,1.4l-7.1,7.1l7.1,7.1
	c0.4,0.4,0.4,1,0,1.4c-0.2,0.2-0.5,0.3-0.7,0.3s-0.5-0.1-0.7-0.3L38.2,51C38.2,51,38.2,51,38.2,51z M58.3,57.4l7.1-7.1l-7.1-7.1
	c-0.4-0.4-0.4-1,0-1.4s1-0.4,1.4,0l7.8,7.8c0,0,0,0,0,0c0.1,0.1,0.2,0.2,0.2,0.3c0.1,0.4,0.1,0.8-0.2,1.1c0,0,0,0,0,0l-7.8,7.8
	c-0.2,0.2-0.5,0.3-0.7,0.3s-0.5-0.1-0.7-0.3C57.9,58.4,57.9,57.8,58.3,57.4z M49.8,57.7l4.7-16c0.2-0.5,0.7-0.8,1.2-0.7
	c0.5,0.2,0.8,0.7,0.7,1.2l-4.7,16c-0.1,0.4-0.5,0.7-1,0.7c-0.1,0-0.2,0-0.3,0C50,58.8,49.7,58.3,49.8,57.7z"/>
</svg>
