<?xml version="1.0" encoding="utf-8"?>
<svg version="1.1" id="http://ethon.consensys.net/icons/ExternalActor_F_1" xmlns="http://www.w3.org/2000/svg" xmlns:xlink="http://www.w3.org/1999/xlink"
	 x="0px" y="0px" viewBox="0 0 106 106">
<style type="text/css">
	.st0{fill:#333333;}
</style>
<path id="ExternalActor_F_1_icon" class="st0" d="M61.2,54.9h14.9c0.4,0,0.8-0.2,0.9-0.6c0.2-0.4,0.1-0.8-0.2-1.1
	C72.4,48.9,70,43.1,70,36.9c0,0,0,0,0,0C69.9,27.6,62.3,20,53,20c-9.3,0-16.9,7.6-17,16.9c0,0,0,0,0,0c0,6.2-2.4,12-6.8,16.3
	c-0.3,0.3-0.4,0.7-0.2,1.1c0.2,0.4,0.5,0.6,0.9,0.6h14.8c0,0,0,0,0.1,0C47.2,56.8,50,58,53,58C56,58,58.8,56.8,61.2,54.9z M38,38.2
	c4.7-0.3,9.1-2.7,12.2-6.6c3.2,3.6,7.8,5.6,12.6,5.6c1.7,0,3.4-0.3,5.1-0.8c0,0.2,0,0.4,0,0.6c0,8.6-6.9,19-15,19
	C45.3,56,38.6,46.5,38,38.2z M63.4,52.9c2.4-2.6,4.4-5.9,5.5-9.4c0.9,3.4,2.6,6.6,4.9,9.4H63.4z M53,22c7.4,0,13.5,5.4,14.8,12.4
	c-1.6,0.5-3.2,0.8-4.9,0.8c-4.7,0-9-2.1-11.9-5.9c0,0-0.1-0.1-0.1-0.1c0,0-0.1-0.1-0.1-0.1c0,0,0,0,0,0c-0.1,0-0.1-0.1-0.2-0.1
	c-0.1,0-0.1,0-0.2-0.1c-0.1,0-0.1,0-0.2,0c-0.1,0-0.1,0-0.2,0c-0.1,0-0.1,0-0.2,0.1c-0.1,0-0.1,0-0.2,0.1c0,0,0,0,0,0
	c0,0-0.1,0.1-0.1,0.1c0,0-0.1,0.1-0.1,0.1c-2.7,4-6.9,6.4-11.3,6.8C38.5,28.3,45,22,53,22z M37.1,43.6c1.1,3.5,3,6.8,5.5,9.4H32.2
	C34.5,50.2,36.2,47,37.1,43.6z M38,61.3c0,0.6-0.4,1-1,1c-8.3,0-15,6.7-15,15c0,0.6-0.4,1-1,1s-1-0.4-1-1c0-9.4,7.6-17,17-17
	C37.6,60.3,38,60.8,38,61.3z M86,77.3c0,0.6-0.4,1-1,1s-1-0.4-1-1c0-8.3-6.7-15-15-15c-0.6,0-1-0.4-1-1s0.4-1,1-1
	C78.4,60.3,86,67.9,86,77.3z"/>
</svg>
