<?xml version="1.0" encoding="utf-8"?>
<svg version="1.1" id="http://ethon.consensys.net/icons/ExternalActor_R" xmlns="http://www.w3.org/2000/svg" xmlns:xlink="http://www.w3.org/1999/xlink"
	 x="0px" y="0px" viewBox="0 0 106 106">
<style type="text/css">
	.st0{fill:#333333;}
</style>
<path id="ExternalActor_R_icon" class="st0" d="M70,51V31c0-1.7-1.3-3-3-3H39c-1.7,0-3,1.3-3,3v20c0,1.7,1.3,3,3,3h28
	C68.7,54,70,52.6,70,51z M68,51c0,0.6-0.4,1-1,1H39c-0.6,0-1-0.4-1-1V31c0-0.6,0.4-1,1-1h28c0.6,0,1,0.4,1,1V51z M38,61
	c0,0.6-0.4,1-1,1H23c-0.6,0-1,0.4-1,1v14c0,0.6-0.4,1-1,1s-1-0.4-1-1V63c0-1.7,1.3-3,3-3h14C37.6,60,38,60.4,38,61z M86,63v14
	c0,0.6-0.4,1-1,1s-1-0.4-1-1V63c0-0.6-0.4-1-1-1H69c-0.6,0-1-0.4-1-1s0.4-1,1-1h14C84.7,60,86,61.3,86,63z M58.1,48c0,0.6-0.4,1-1,1
	h-8c-0.6,0-1-0.4-1-1s0.4-1,1-1h8C57.7,47,58.1,47.5,58.1,48z M51.1,38c0-2.8-2.2-5-5-5s-5,2.2-5,5s2.2,5,5,5S51.1,40.8,51.1,38z
	 M46.1,41c-1.7,0-3-1.3-3-3s1.3-3,3-3s3,1.3,3,3S47.8,41,46.1,41z M60.3,33c-2.8,0-5,2.2-5,5s2.2,5,5,5s5-2.2,5-5S63.1,33,60.3,33z
	 M60.3,41c-1.7,0-3-1.3-3-3s1.3-3,3-3s3,1.3,3,3S62,41,60.3,41z M72,45v-8c0-0.6,0.4-1,1-1s1,0.4,1,1v8c0,0.6-0.4,1-1,1
	S72,45.5,72,45z M32.3,45v-8c0-0.6,0.4-1,1-1s1,0.4,1,1v8c0,0.6-0.4,1-1,1S32.3,45.5,32.3,45z"/>
</svg>
