<?xml version="1.0" encoding="utf-8"?>
<svg version="1.1" id="http://ethon.consensys.net/icons/ExternalActor_F_2" xmlns="http://www.w3.org/2000/svg" xmlns:xlink="http://www.w3.org/1999/xlink"
	 x="0px" y="0px" viewBox="0 0 106 106">
<style type="text/css">
	.st0{fill:#333333;}
</style>
<path id="ExternalActor_F_2_icon" class="st0" d="M70,56.2v-0.1c0-0.2,0-0.3-0.1-0.5c-1.2-2.1-2-6.3-2-9.2
	c0,0,0-0.1,0-0.1c1.4-3,2.2-6.3,2.2-9.3c0-9.4-7.6-17-17-17s-17,7.6-17,17c0,3.1,0.8,6.5,2.3,9.5c0,2.8-0.8,6.9-2,9.1
	c-0.1,0.2-0.1,0.3-0.1,0.5v0.1c0,0.6,0.4,1,1,1h11.6c1.4,0.5,2.8,0.8,4.2,0.8s2.9-0.3,4.2-0.8H69C69.6,57.2,70,56.8,70,56.2z M53,22
	c7.9,0,14.3,6.1,14.9,13.8c-6.7-0.2-13.2-2-18.9-5.4c0,0,0,0,0-0.1c-0.4-0.4-1-0.5-1.4-0.1c-2.8,2.3-6,3.9-9.5,4.6
	C39.2,27.6,45.5,22,53,22z M38.7,55.2c0.6-1.6,1.1-3.6,1.4-5.5c1.4,2.2,3.1,4.1,5.1,5.5H38.7z M53,56c-1.2,0-2.4-0.2-3.5-0.6
	c-0.1,0-0.2-0.1-0.2-0.1C42.9,52.7,38,44.2,38,37c0,0,0,0,0-0.1c3.7-0.8,7.2-2.4,10.3-4.7c6,3.5,12.8,5.4,19.7,5.6
	C67.6,46.2,60.8,56,53,56z M60.9,55.2c2-1.5,3.8-3.4,5.2-5.7c0.3,1.9,0.7,4,1.4,5.7H60.9z M38,61.3c0,0.6-0.4,1-1,1
	c-8.3,0-15,6.7-15,15c0,0.6-0.4,1-1,1s-1-0.4-1-1c0-9.4,7.6-17,17-17C37.6,60.3,38,60.8,38,61.3z M86,77.3c0,0.6-0.4,1-1,1
	s-1-0.4-1-1c0-8.3-6.7-15-15-15c-0.6,0-1-0.4-1-1s0.4-1,1-1C78.4,60.3,86,67.9,86,77.3z"/>
</svg>
