<?xml version="1.0" encoding="utf-8"?>
<svg version="1.1" id="http://ethon.consensys.net/icons/ExternalActor_M_1" xmlns="http://www.w3.org/2000/svg" xmlns:xlink="http://www.w3.org/1999/xlink"
	 x="0px" y="0px" viewBox="0 0 106 106">
<style type="text/css">
	.st0{fill:#333333;}
</style>
<path id="ExternalActor_M_1_icon" class="st0" d="M53,20c-9.4,0-17,7.6-17,17c0,9.5,7.6,21,17,21s17-11.5,17-21
	C70,27.6,62.4,20,53,20z M53,22c6.7,0,12.3,4.4,14.3,10.4c-3.6-1.8-6.9-4.1-9.8-6.9c0,0-0.1-0.1-0.1-0.1c-0.1,0-0.1-0.1-0.2-0.1
	c-0.1,0-0.1,0-0.2,0c-0.1,0-0.1,0-0.2,0c-0.1,0-0.1,0-0.2,0c-0.1,0-0.1,0-0.2,0c-0.1,0-0.1,0.1-0.2,0.1c-0.1,0-0.1,0.1-0.2,0.1
	c-5.1,4.8-11.3,8.3-18,10C38.8,27.9,45.2,22,53,22z M53,56c-7.9,0-14.7-10-15-18.4c7-1.7,13.4-5.1,18.8-10c3.3,3,7,5.5,11.1,7.3
	c0.1,0.7,0.2,1.4,0.2,2.1C68,45.6,61.1,56,53,56z M38,61.3c0,0.6-0.4,1-1,1c-8.3,0-15,6.7-15,15c0,0.6-0.4,1-1,1s-1-0.4-1-1
	c0-9.4,7.6-17,17-17C37.6,60.3,38,60.8,38,61.3z M86,77.3c0,0.6-0.4,1-1,1s-1-0.4-1-1c0-8.3-6.7-15-15-15c-0.6,0-1-0.4-1-1
	s0.4-1,1-1C78.4,60.3,86,67.9,86,77.3z"/>
</svg>
