<?xml version="1.0" encoding="utf-8"?>
<svg version="1.1" id="http://ethon.consensys.net/icons/ExternalActor_M_2" xmlns="http://www.w3.org/2000/svg" xmlns:xlink="http://www.w3.org/1999/xlink"
	 x="0px" y="0px" viewBox="0 0 106 106">
<style type="text/css">
	.st0{fill:#333333;}
</style>
<path id="ExternalActor_M_2_icon" class="st0" d="M70,36.8c0-0.1,0-0.2,0-0.3C69.7,27.4,62.2,20,53,20
	c-9.4,0-17,7.6-17,17c0,9.5,7.6,21,17,21s17-11.5,17-21C70,36.9,70,36.9,70,36.8z M53,22c7.7,0,14.1,5.9,14.9,13.4
	c-6.7-1.7-12.8-5.1-17.8-9.9c0,0-0.1-0.1-0.1-0.1c-0.1,0-0.1-0.1-0.2-0.1c-0.1,0-0.1,0-0.2,0c-0.1,0-0.1,0-0.2,0c-0.1,0-0.1,0-0.2,0
	c-0.1,0-0.1,0-0.2,0c-0.1,0-0.1,0.1-0.2,0.1c-0.1,0-0.1,0.1-0.2,0.1c-3,2.9-6.3,5.2-10,7C40.6,26.4,46.3,22,53,22z M53,56
	c-8.1,0-15-10.4-15-19c0-0.7,0.1-1.4,0.2-2c4.1-1.9,7.9-4.4,11.2-7.4c5.3,4.8,11.7,8.3,18.6,10C67.7,46,60.9,56,53,56z M38,61.3
	c0,0.6-0.4,1-1,1c-8.3,0-15,6.7-15,15c0,0.6-0.4,1-1,1s-1-0.4-1-1c0-9.4,7.6-17,17-17C37.6,60.3,38,60.8,38,61.3z M86,77.3
	c0,0.6-0.4,1-1,1s-1-0.4-1-1c0-8.3-6.7-15-15-15c-0.6,0-1-0.4-1-1s0.4-1,1-1C78.4,60.3,86,67.9,86,77.3z M62,47c0,0.6-0.4,1-1,1
	s-1-0.4-1-1c0-0.6-0.4-1-1-1H47c-0.6,0-1,0.4-1,1c0,0.6-0.4,1-1,1s-1-0.4-1-1c0-1.7,1.3-3,3-3h12C60.7,44,62,45.3,62,47z"/>
</svg>
