<?xml version="1.0" encoding="utf-8"?>
<svg version="1.1" id="http://ethon.consensys.net/icons/LightNode_icon" xmlns="http://www.w3.org/2000/svg" xmlns:xlink="http://www.w3.org/1999/xlink"
	 width="64" height="64" viewBox="0 0 106 106">
<style type="text/css">
	.st0{fill:#414042;}
</style>
<path class="st0" d="M65.7,64.3c2.7-3,4.3-6.9,4.3-11.3c0-4.3-1.6-8.3-4.3-11.3l20-20c0.4-0.4,0.4-1,0-1.4
	s-1-0.4-1.4,0l-20,20c-3-2.7-6.9-4.3-11.3-4.3c-4.3,0-8.3,1.6-11.3,4.3l-20-20c-0.4-0.4-1-0.4-1.4,0s-0.4,1,0,1.4l20,20
	c-2.7,3-4.3,6.9-4.3,11.3c0,4.3,1.6,8.3,4.3,11.3l-20,20c-0.4,0.4-0.4,1,0,1.4c0.2,0.2,0.5,0.3,0.7,0.3s0.5-0.1,0.7-0.3l20-20
	c3,2.7,6.9,4.3,11.3,4.3c4.3,0,8.3-1.6,11.3-4.3l20,20c0.2,0.2,0.5,0.3,0.7,0.3s0.5-0.1,0.7-0.3c0.4-0.4,0.4-1,0-1.4L65.7,64.3z
	 M38,53c0-8.3,6.7-15,15-15s15,6.7,15,15s-6.7,15-15,15S38,61.3,38,53z"/>
</svg>
