<?xml version="1.0" encoding="utf-8"?>
<svg version="1.1" id="http://ethon.consensys.net/icons/LogEntry" xmlns="http://www.w3.org/2000/svg" xmlns:xlink="http://www.w3.org/1999/xlink"
	 x="0px" y="0px" viewBox="0 0 106 106">
<style type="text/css">
	.st0{fill:#333333;}
</style>
<path id="LogEntry_icon" class="st0" d="M78,54.1V83c0,1.7-1.3,3-3,3H31c-1.7,0-3-1.3-3-3V23c0-1.7,1.3-3,3-3h44
	c1.7,0,3,1.3,3,3v4.3c0,0.6-0.4,1-1,1s-1-0.4-1-1V23c0-0.6-0.4-1-1-1H31c-0.6,0-1,0.4-1,1v60c0,0.6,0.4,1,1,1h44c0.6,0,1-0.4,1-1
	V54.1c0-0.6,0.4-1,1-1S78,53.6,78,54.1z M84.3,38.7c0.2,0.2,0.3,0.4,0.3,0.7s-0.1,0.5-0.3,0.7L53.9,70.5c-0.2,0.2-0.5,0.3-0.7,0.3
	s-0.5-0.1-0.7-0.3l-5.7-5.7c-0.4-0.4-0.4-1,0-1.4L77.3,33c0.4-0.4,1-0.4,1.4,0L84.3,38.7z M82.2,39.4L78,35.1l-29,29l4.2,4.2
	L82.2,39.4z M89.5,34.9l-2.4,2.4c-0.2,0.2-0.5,0.3-0.7,0.3s-0.5-0.1-0.7-0.3L80,31.7c-0.4-0.4-0.4-1,0-1.4l2.4-2.4c0,0,0,0,0,0
	c1.2-1.2,3.1-1.2,4.2,0l2.8,2.8C90.7,31.8,90.7,33.7,89.5,34.9z M88.1,32.1l-2.8-2.8c-0.4-0.4-1-0.4-1.4,0L82.1,31l4.2,4.2l1.7-1.7
	C88.5,33.1,88.5,32.5,88.1,32.1z M44.3,66.2c0.3-0.1,0.7,0,0.9,0.3l5.6,5.6c0.2,0.2,0.3,0.6,0.3,0.9c-0.1,0.3-0.3,0.6-0.6,0.7
	l-8.8,3.2c-0.1,0-0.2,0.1-0.3,0.1c-0.3,0-0.5-0.1-0.7-0.3c-0.3-0.3-0.4-0.7-0.2-1l3.2-8.8C43.7,66.5,44,66.3,44.3,66.2z M43,74.3
	l5.3-1.9L45,69L43,74.3z"/>
</svg>
