<?xml version="1.0" encoding="utf-8"?>
<svg version="1.1" id="http://ethon.consensys.net/icons/Msg_icon" xmlns="http://www.w3.org/2000/svg" xmlns:xlink="http://www.w3.org/1999/xlink"
	 width="64" height="64" viewBox="0 0 106 106">
<style type="text/css">
	.st0{fill:#333333;}
</style>
<path class="st0" d="M91,28H15c-1.7,0-3,1.3-3,3v44c0,1.7,1.3,3,3,3h13v7.3c0,0.4,0.3,0.8,0.7,0.9
	c0.1,0,0.2,0.1,0.3,0.1c0.3,0,0.6-0.1,0.8-0.3l6.9-8H91c1.7,0,3-1.3,3-3V31C94,29.4,92.7,28,91,28z M92,75c0,0.6-0.4,1-1,1H36.1
	c-0.3,0-0.6,0.1-0.8,0.3L30,82.6V77c0-0.6-0.4-1-1-1H15c-0.6,0-1-0.4-1-1V31c0-0.6,0.4-1,1-1h76c0.6,0,1,0.4,1,1V75z M33.1,48
	c-2.8,0-5,2.2-5,5s2.2,5,5,5s5-2.2,5-5S35.8,48,33.1,48z M33.1,56c-1.7,0-3-1.3-3-3s1.3-3,3-3s3,1.3,3,3S34.7,56,33.1,56z M53.2,48
	c-2.8,0-5,2.2-5,5s2.2,5,5,5s5-2.2,5-5S56,48,53.2,48z M53.2,56c-1.7,0-3-1.3-3-3s1.3-3,3-3s3,1.3,3,3S54.9,56,53.2,56z M72.9,48
	c-2.8,0-5,2.2-5,5s2.2,5,5,5s5-2.2,5-5S75.7,48,72.9,48z M72.9,56c-1.7,0-3-1.3-3-3s1.3-3,3-3s3,1.3,3,3S74.6,56,72.9,56z"/>
</svg>
