<?xml version="1.0" encoding="utf-8"?>
<svg version="1.1" id="http://ethon.consensys.net/icons/ProtocollVariant_icon" xmlns="http://www.w3.org/2000/svg" xmlns:xlink="http://www.w3.org/1999/xlink"
	 width="64" height="64" viewBox="0 0 106 106">
<style type="text/css">
	.st0{fill:#333333;}
</style>
<path class="st0" d="M54,13v80c0,0.6-0.4,1-1,1s-1-0.4-1-1V13c0-0.6,0.4-1,1-1S54,12.4,54,13z
	 M85.7,61.7l-24,24C61.5,85.9,61.3,86,61,86c-0.1,0-0.3,0-0.4-0.1C60.3,85.8,60,85.4,60,85V21c0-0.4,0.3-0.8,0.7-1
	c0.4-0.1,0.9,0.1,1.1,0.5l24,40C86.1,60.9,86,61.4,85.7,61.7z M83.7,60.9L62,24.6v58L83.7,60.9z M46,21v64c0,0.4-0.2,0.8-0.6,0.9
	C45.3,86,45.2,86,45,86c-0.3,0-0.5-0.1-0.7-0.3l-24-24c-0.3-0.3-0.4-0.8-0.2-1.2l24-40c0.2-0.4,0.7-0.6,1.1-0.4
	C45.7,20.1,46,20.5,46,21z M44,24.6L22.3,60.9L44,82.6V24.6z"/>
</svg>
