<?xml version="1.0" encoding="utf-8"?>
<svg version="1.1" id="http://ethon.consensys.net/icons/Tx_icon" xmlns="http://www.w3.org/2000/svg" xmlns:xlink="http://www.w3.org/1999/xlink"
	 width="64" height="64" viewBox="0 0 106 106">
<style type="text/css">
	.st0{fill:#333333;}
</style>
<path class="st0" d="M91,28.1H15c-1.7,0-3,1.3-3,3v44c0,1.7,1.3,3,3,3h13v7.3c0,0.4,0.3,0.8,0.7,0.9
	c0.1,0,0.2,0.1,0.3,0.1c0.3,0,0.6-0.1,0.8-0.3l6.9-8H91c1.7,0,3-1.3,3-3v-44C94,29.4,92.7,28.1,91,28.1z M92,75.1c0,0.6-0.4,1-1,1
	H36.1c-0.3,0-0.6,0.1-0.8,0.3L30,82.7v-5.6c0-0.6-0.4-1-1-1H15c-0.6,0-1-0.4-1-1v-44c0-0.6,0.4-1,1-1h76c0.6,0,1,0.4,1,1V75.1z
	 M53,39.8c-5,0-9,4-9,9s4,9,9,9s9-4,9-9S58,39.8,53,39.8z M53,55.8c-3.9,0-7-3.1-7-7c0-3.9,3.1-7,7-7s7,3.1,7,7
	C60,52.7,56.9,55.8,53,55.8z M43.7,56.9c0,0.6-0.4,1-1,1c-3.9,0-7,3.1-7,7c0,0.6-0.4,1-1,1s-1-0.4-1-1c0-5,4-9,9-9
	C43.3,55.9,43.7,56.3,43.7,56.9z M72.3,64.9c0,0.6-0.4,1-1,1s-1-0.4-1-1c0-3.9-3.1-7-7-7c-0.6,0-1-0.4-1-1s0.4-1,1-1
	C68.3,55.9,72.3,59.9,72.3,64.9z"/>
</svg>
